REM GENRE Rock
REM DATE 1994
REM DISCID AF0B250C
REM COMMENT "ExactAudioCopy v0.95b3"
PERFORMER "Аквариум"
TITLE "Кострома Mon Amur (Антология 2002)"
FILE "cdimage.wv" WAVE
  TRACK 01 AUDIO
    TITLE "Русская Нирвана"
    PERFORMER "Аквариум"
    INDEX 01 00:00:00
  TRACK 02 AUDIO
    TITLE "Пой, Пой, Лира"
    PERFORMER "Аквариум"
    INDEX 00 03:12:47
    INDEX 01 03:14:46
  TRACK 03 AUDIO
    TITLE "Московская Октябрьская"
    PERFORMER "Аквариум"
    INDEX 00 06:44:19
    INDEX 01 06:46:18
  TRACK 04 AUDIO
    TITLE "8200"
    PERFORMER "Аквариум"
    INDEX 00 11:14:09
    INDEX 01 11:16:08
  TRACK 05 AUDIO
    TITLE "Из Сияющей Пустоты"
    PERFORMER "Аквариум"
    INDEX 00 14:11:06
    INDEX 01 14:13:05
  TRACK 06 AUDIO
    TITLE "Кострома Mon Amur"
    PERFORMER "Аквариум"
    INDEX 00 17:41:23
    INDEX 01 17:43:22
  TRACK 07 AUDIO
    TITLE "Ты Нужна Мне"
    PERFORMER "Аквариум"
    INDEX 00 22:18:03
    INDEX 01 22:20:02
  TRACK 08 AUDIO
    TITLE "Звездочка"
    PERFORMER "Аквариум"
    INDEX 00 26:33:35
    INDEX 01 26:35:34
  TRACK 09 AUDIO
    TITLE "Сувлехим Такац"
    PERFORMER "Аквариум"
    INDEX 00 30:00:64
    INDEX 01 30:02:63
  TRACK 10 AUDIO
    TITLE "Не Пей Вина, Гертруда"
    PERFORMER "Аквариум"
    INDEX 00 32:52:08
    INDEX 01 32:54:07
  TRACK 11 AUDIO
    TITLE "Кострома Mon Amur (Аквариум + Темуджин) [bonus track]"
    PERFORMER "Аквариум"
    INDEX 00 37:13:72
    INDEX 01 37:15:71
